Coordinates
version=1
nRows=48
nColumns=11
inDegrees=yes

Units are S.I. units (second, meters, Newtons, ...)
Angles are in degrees.

endheader
time	pelvis_tilt	pelvis_tx	pelvis_ty	hip_flexion_r	knee_angle_r	ankle_angle_r	hip_flexion_l	knee_angle_l	ankle_angle_l	lumbar_extension
      0.86666667	    -12.37823886	      0.28596860	      1.00676083	      5.45898415	     -4.19077660	      8.29187210	      8.18621451	     -6.46664130	      5.80004016	      9.09169602
      0.87500000	    -12.63559681	      0.28469458	      1.00664517	      5.64909330	     -4.19074462	      8.16207174	      8.41253124	     -6.59335178	      5.91037700	      9.05286256
      0.88333333	    -12.90249518	      0.28345562	      1.00644248	      5.83956540	     -4.16107321	      8.01272116	      8.65513927	     -6.69344678	      5.94706126	      9.01672298
      0.89166667	    -13.18052298	      0.28219875	      1.00629248	      6.03869620	     -4.10076833	      7.84701759	      8.91606466	     -6.75223638	      5.93887737	      8.98506398
      0.90000000	    -13.47245275	      0.28083990	      1.00629173	      6.25528958	     -4.01050330	      7.66936743	      9.19431118	     -6.76285385	      5.91408106	      8.95784639
      0.90833333	    -13.78025166	      0.27931882	      1.00643761	      6.49622715	     -3.89345358	      7.48493270	      9.48846963	     -6.72675574	      5.89156088	      8.93312117
      0.91666667	    -14.10197346	      0.27765640	      1.00664006	      6.76505585	     -3.75552977	      7.29891432	      9.80047339	     -6.65148187	      5.87665444	      8.90712751
      0.92500000	    -14.43258776	      0.27592001	      1.00677236	      7.06224149	     -3.60476330	      7.11572337	     10.13465936	     -6.54888590	      5.86232104	      8.87478235
      0.93333333	    -14.76738903	      0.27413437	      1.00673427	      7.38665310	     -3.45014496	      6.93829116	     10.49353484	     -6.43395293	      5.83438796	      8.83048467
      0.94166667	    -15.10341429	      0.27225525	      1.00650750	      7.73706951	     -3.30046652	      6.76778080	     10.87600767	     -6.32225319	      5.77855952	      8.76865862
      0.95000000	    -15.43876098	      0.27023202	      1.00617695	      8.11284727	     -3.16347785	      6.60386383	     11.27916380	     -6.22639190	      5.68663229	      8.68356114
      0.95833333	    -15.77229971	      0.26807247	      1.00589080	      8.51363842	     -3.04534829	      6.44549896	     11.70038652	     -6.15371674	      5.55986699	      8.56892873
      0.96666667	    -16.10342845	      0.26583264	      1.00576592	      8.93853542	     -2.95037581	      6.29185583	     12.13825788	     -6.10618088	      5.40872229	      8.41878739
      0.97500000	    -16.43053308	      0.26354742	      1.00580675	      9.38540450	     -2.88089321	      6.14289519	     12.59286451	     -6.08159503	      5.24970484	      8.22955513
      0.98333333	    -16.74993169	      0.26118787	      1.00591130	      9.85111663	     -2.83723217	      5.99932044	     13.06557767	     -6.07553093	      5.10092448	      8.00139779
      0.99166667	    -17.05805922	      0.25869265	      1.00595714	     10.33251430	     -2.81767846	      5.86199848	     13.55752732	     -6.08365421	      4.97779466	      7.73714003
      1.00000000	    -17.35579171	      0.25602279	      1.00589038	     10.82708135	     -2.81859722	      5.73120656	     14.06698746	     -6.10394337	      4.88979560	      7.43999848
      1.00833333	    -17.64924565	      0.25319192	      1.00574122	     11.33257022	     -2.83491457	      5.60606871	     14.58877458	     -6.13692495	      4.83878001	      7.11261773
      1.01666667	    -17.94489910	      0.25026744	      1.00557226	     11.84607670	     -2.86074901	      5.48439947	     15.11700915	     -6.18323625	      4.81899157	      6.75780916
      1.02500000	    -18.24492116	      0.24732463	      1.00543576	     12.36357382	     -2.88980230	      5.36298919	     15.64724071	     -6.24107258	      4.81860908	      6.37921876
      1.03333333	    -18.54709514	      0.24438032	      1.00536232	     12.88016673	     -2.91549133	      5.23819257	     16.17587116	     -6.30536730	      4.82232915	      5.98034234
      1.04166667	    -18.84737977	      0.24138195	      1.00534859	     13.39075143	     -2.93109320	      5.10658825	     16.69936059	     -6.36801568	      4.81451800	      5.56209641
      1.05000000	    -19.14236273	      0.23827221	      1.00534433	     13.89076532	     -2.93014040	      4.96551213	     17.21478517	     -6.41855834	      4.78243857	      5.12059003
      1.05833333	    -19.43090144	      0.23506960	      1.00526865	     14.37679969	     -2.90714026	      4.81337606	     17.72069193	     -6.44579906	      4.71872719	      4.64689210
      1.06666667	    -19.71532789	      0.23188562	      1.00507258	     14.84698883	     -2.85841700	      4.64978291	     18.21635424	     -6.44089595	      4.62220356	      4.12967796
      1.07500000	    -20.00133744	      0.22885917	      1.00479401	     15.30091592	     -2.78282030	      4.47548853	     18.69979859	     -6.40084353	      4.49665807	      3.56027298
      1.08333333	    -20.29476505	      0.22606166	      1.00452542	     15.73878467	     -2.68215887	      4.29224525	     19.16724218	     -6.32997095	      4.34822328	      2.93835891
      1.09166667	    -20.59619946	      0.22344411	      1.00432713	     16.16038489	     -2.56115042	      4.10254304	     19.61512576	     -6.23828027	      4.18277514	      2.27572209
      1.10000000	    -20.89796105	      0.22086981	      1.00419149	     16.56477738	     -2.42669835	      3.90927891	     20.04307561	     -6.13768259	      4.00472622	      1.59535980
      1.10833333	    -21.18755339	      0.21821263	      1.00407539	     16.95112784	     -2.28650815	      3.71541664	     20.45475781	     -6.03857993	      3.81735936	      0.92526439
      1.11666667	    -21.45579918	      0.21544014	      1.00394128	     17.32030846	     -2.14727767	      3.52371154	     20.85551407	     -5.94840919	      3.62384782	      0.28995053
      1.12500000	    -21.70290052	      0.21261185	      1.00377605	     17.67610061	     -2.01301068	      3.33655567	     21.24919813	     -5.87155614	      3.42813020	     -0.29544256
      1.13333333	    -21.93805724	      0.20980948	      1.00358645	     18.02475145	     -1.88421107	      3.15596291	     21.63724160	     -5.80928007	      3.23511579	     -0.82613503
      1.14166667	    -22.17400190	      0.20708045	      1.00337618	     18.37275489	     -1.75845539	      2.98367326	     22.02046122	     -5.75924400	      3.05009605	     -1.30509127
      1.15000000	    -22.42075958	      0.20443824	      1.00313279	     18.72425817	     -1.63217399	      2.82130682	     22.40126382	     -5.71549992	      2.87771543	     -1.73940242
      1.15833333	    -22.68211449	      0.20189251	      1.00284188	     19.07991022	     -1.50283643	      2.67046320	     22.78347175	     -5.67005307	      2.72091340	     -2.13746598
      1.16666667	    -22.95547696	      0.19946095	      1.00250223	     19.43769438	     -1.37062274	      2.53266142	     23.16970670	     -5.61584944	      2.58009716	     -2.50755400
      1.17500000	    -23.23384295	      0.19714649	      1.00211735	     19.79468855	     -1.23909104	      2.40905873	     23.55880686	     -5.54964326	      2.45281068	     -2.85747677
      1.18333333	    -23.50829393	      0.19491299	      1.00168940	     20.14834421	     -1.11483920	      2.29998670	     23.94547901	     -5.47320691	      2.33413462	     -3.19463999
      1.19166667	    -23.77021458	      0.19270189	      1.00123834	     20.49675899	     -1.00633528	      2.20448716	     24.32223217	     -5.39251171	      2.21779693	     -3.52589840
      1.20000000	    -24.01309822	      0.19047987	      1.00081209	     20.83842516	     -0.92207008	      2.12011514	     24.68187170	     -5.31569166	      2.09765390	     -3.85704188
      1.20833333	    -24.23361264	      0.18826601	      1.00045897	     21.17200246	     -0.86833356	      2.04315864	     25.01927050	     -5.25072195	      1.96905698	     -4.19210409
      1.21666667	    -24.43147636	      0.18611056	      1.00019218	     21.49613060	     -0.84725973	      1.96917798	     25.33246799	     -5.20327645	      1.82974958	     -4.53279983
      1.22500000	    -24.60842688	      0.18405299	      0.99998883	     21.80930766	     -0.85586610	      1.89363781	     25.62310985	     -5.17525889	      1.68017111	     -4.87835036
      1.23333333	    -24.76707254	      0.18210258	      0.99982091	     22.10999921	     -0.88644718	      1.81245996	     25.89579297	     -5.16458071	      1.52313029	     -5.22575013
      1.24166667	    -24.91033172	      0.18024494	      0.99967998	     22.39680421	     -0.92813469	      1.72243244	     26.15623724	     -5.16629448	      1.36290495	     -5.57031618
      1.25000000	    -25.04155242	      0.17845438	      0.99957450	     22.66844340	     -0.96905135	      1.62147161	     26.40896151	     -5.17451593	      1.20407653	     -5.90636237
      1.25833333	    -25.16464182	      0.17670761	      0.99951113	     22.92362743	     -0.99845293	      1.50875194	     26.65566049	     -5.18415887	      1.05054419	     -6.22795164
